<?xml version="1.0" encoding="utf-8"?>
<!-- Generator: Adobe Illustrator 17.0.0, SVG Export Plug-In . SVG Version: 6.00 Build 0)  -->
<!DOCTYPE svg PUBLIC "-//W3C//DTD SVG 1.0//EN" "http://www.w3.org/TR/2001/REC-SVG-20010904/DTD/svg10.dtd">
<svg version="1.0" id="Слой_1" xmlns="http://www.w3.org/2000/svg" xmlns:xlink="http://www.w3.org/1999/xlink" x="0px" y="0px"
	 width="286px" height="72px" viewBox="0 0 286 72" enable-background="new 0 0 286 72" xml:space="preserve">
<g>
	<g>
		<path fill="#63B4B4" d="M9.601,54.588c-2.122,0-4.178,0.865-5.641,2.372c-1.515,1.539-2.349,3.557-2.349,5.682
			c0,2.125,0.834,4.143,2.348,5.682c1.463,1.508,3.519,2.372,5.641,2.372c2.144,0,4.155-0.842,5.662-2.371
			c1.514-1.539,2.348-3.557,2.348-5.683c0-2.126-0.834-4.144-2.348-5.683C13.756,55.431,11.745,54.588,9.601,54.588z M16.927,62.643
			c0,1.958-0.756,3.805-2.127,5.201c-1.392,1.413-3.238,2.191-5.198,2.191c-1.947,0-3.785-0.778-5.176-2.191
			c-1.386-1.41-2.15-3.257-2.15-5.201c0-1.944,0.763-3.791,2.15-5.201c1.39-1.413,3.228-2.191,5.176-2.191
			c1.961,0,3.808,0.778,5.198,2.191C16.171,58.838,16.927,60.685,16.927,62.643z"/>
		<polygon fill="#63B4B4" points="29.321,54.808 29.321,69.208 19.403,54.875 19.361,54.813 18.812,54.774 18.812,70.478 
			19.475,70.478 19.475,56.165 29.374,70.478 29.962,70.478 29.962,54.808 		"/>
	</g>
	<g>
		<path fill="#1D1D1B" d="M37.023,54.83H31.69v15.647h5.334c2.38,0,4.379-0.847,5.782-2.449c1.243-1.419,1.927-3.328,1.927-5.374
			C44.733,58.886,42.32,54.83,37.023,54.83z M37.023,55.471c4.856,0,7.068,3.723,7.068,7.183c0,1.885-0.628,3.64-1.767,4.943
			c-1.282,1.465-3.115,2.24-5.301,2.24h-4.692V55.471H37.023z"/>
		<path fill="#1D1D1B" d="M53.587,54.588c-2.122,0-4.178,0.865-5.64,2.372c-1.514,1.538-2.348,3.556-2.348,5.682
			c0,2.126,0.834,4.144,2.347,5.682c1.462,1.508,3.518,2.372,5.641,2.372c2.145,0,4.156-0.842,5.662-2.371
			c1.514-1.539,2.349-3.557,2.349-5.683c0-2.125-0.834-4.143-2.349-5.683C57.742,55.431,55.731,54.588,53.587,54.588z
			 M60.913,62.643c0,1.958-0.756,3.805-2.128,5.201c-1.391,1.413-3.237,2.191-5.198,2.191c-1.947,0-3.785-0.778-5.176-2.191
			c-1.386-1.41-2.15-3.257-2.15-5.201c0-1.944,0.763-3.791,2.15-5.201c1.39-1.413,3.228-2.191,5.176-2.191
			c1.962,0,3.808,0.778,5.198,2.191C60.157,58.838,60.913,60.685,60.913,62.643z"/>
		<path fill="#1D1D1B" d="M76.48,65.631c-0.318,0.736-0.795,1.437-1.417,2.082c-1.325,1.37-3.086,2.124-4.956,2.124
			c-1.871,0-3.631-0.754-4.957-2.125c-1.329-1.352-2.061-3.144-2.061-5.047c0-1.88,0.732-3.672,2.062-5.047
			c1.312-1.356,3.072-2.103,4.957-2.103c1.884,0,3.644,0.747,4.956,2.103c0.611,0.633,1.087,1.34,1.417,2.103l0.041,0.094h0.709
			l-0.089-0.216c-0.367-0.885-0.924-1.729-1.612-2.44c-1.442-1.487-3.368-2.306-5.421-2.306c-2.054,0-3.98,0.819-5.422,2.306
			c-1.443,1.491-2.238,3.447-2.238,5.506c0,2.075,0.795,4.037,2.238,5.527c1.44,1.488,3.366,2.308,5.422,2.308
			c2.055,0,3.98-0.82,5.421-2.308c0.686-0.709,1.244-1.552,1.612-2.439l0.089-0.216H76.52L76.48,65.631z"/>
	</g>
	<path fill="#1D1D1B" d="M56.443,46.974l-0.026,0.052c-2.004,3.949-7.297,5.951-15.734,5.951c-0.817,0-1.674-0.019-2.549-0.057
		c-16.29-0.687-19.678-14.642-20.196-17.458c9.494-0.209,17.154-7.997,17.154-17.541c0-7.693-5.109-14.565-12.45-16.791
		c-0.011-0.392-0.331-0.708-0.726-0.708c-0.401,0-0.727,0.327-0.727,0.728c0,0.401,0.326,0.727,0.727,0.727
		c0.172,0,0.327-0.062,0.452-0.162c7.12,2.115,12.084,8.762,12.084,16.206c0,9.322-7.584,16.906-16.906,16.906
		c-9.322,0-16.906-7.584-16.906-16.906c0-7.813,5.254-14.522,12.804-16.402c0.127,0.213,0.358,0.357,0.624,0.357
		c0.401,0,0.727-0.326,0.727-0.727c0-0.402-0.326-0.728-0.727-0.728c-0.303,0-0.563,0.186-0.672,0.45C5.501,2.786,0,9.776,0,17.922
		c0,9.593,7.739,17.411,17.301,17.543c0.48,2.684,3.881,17.37,20.807,18.084c0.864,0.036,1.712,0.054,2.521,0.054
		c8.729,0,14.229-2.117,16.347-6.293l0.026-0.052L56.443,46.974z"/>
	<g>
		<path fill="#1D1D1B" d="M70.262,0.168H42.874c-3.352,0-6.08,2.728-6.08,6.08v37.554c0,3.352,2.727,6.08,6.08,6.08h27.389
			c3.352,0,6.079-2.727,6.079-6.08V6.248C76.342,2.895,73.615,0.168,70.262,0.168z M70.262,49.254H42.874
			c-3.006,0-5.452-2.446-5.452-5.452V6.248c0-3.007,2.446-5.453,5.452-5.453h27.389c3.006,0,5.452,2.446,5.452,5.453v37.554
			C75.714,46.808,73.268,49.254,70.262,49.254z"/>
		<path fill="#1D1D1B" d="M67.289,4.898H45.566c-2.695,0-4.887,2.192-4.887,4.887v30.288c0,2.695,2.193,4.887,4.887,4.887h21.723
			c2.695,0,4.887-2.193,4.887-4.887V9.785C72.176,7.09,69.984,4.898,67.289,4.898z M45.566,5.526h21.723
			c2.349,0,4.26,1.911,4.26,4.26v30.288c0,2.349-1.911,4.259-4.26,4.259H45.566c-2.349,0-4.259-1.911-4.259-4.259V9.785
			C41.306,7.437,43.217,5.526,45.566,5.526z"/>
	</g>
	<path fill="#1D1D1B" d="M56.696,45.454c-0.945,0-1.714,0.769-1.714,1.714s0.769,1.714,1.714,1.714s1.714-0.769,1.714-1.714
		S57.641,45.454,56.696,45.454z M56.696,48.379c-0.667,0-1.21-0.543-1.21-1.21s0.543-1.21,1.21-1.21c0.667,0,1.21,0.543,1.21,1.21
		S57.363,48.379,56.696,48.379z"/>
	<g>
		<g>
			
				<linearGradient id="SVGID_1_" gradientUnits="userSpaceOnUse" x1="2514.5847" y1="7118.5244" x2="2542.0149" y2="7118.5244" gradientTransform="matrix(-1 0 0 -1 2584.998 7143.9629)">
				<stop  offset="0" style="stop-color:#5C8E87"/>
				<stop  offset="0.585" style="stop-color:#2893CA"/>
				<stop  offset="1" style="stop-color:#81AF41"/>
			</linearGradient>
			<polygon fill="url(#SVGID_1_)" points="70.005,18.643 70.411,18.937 63.182,28.9 58.857,24.575 53.636,32.237 49.86,32.237 
				44.656,27.033 42.981,27.033 42.981,26.532 44.864,26.532 50.067,31.736 53.371,31.736 58.784,23.793 63.122,28.131 			"/>
			<linearGradient id="SVGID_2_" gradientUnits="userSpaceOnUse" x1="70.4926" y1="25.4286" x2="42.9223" y2="25.4286">
				<stop  offset="0" style="stop-color:#5C8E87"/>
				<stop  offset="0.585" style="stop-color:#2893CA"/>
				<stop  offset="1" style="stop-color:#81AF41"/>
			</linearGradient>
			<path fill="url(#SVGID_2_)" d="M53.668,32.295h-3.831l-0.017-0.017l-5.187-5.187h-1.709v-0.618h1.965l0.017,0.017l5.186,5.186
				h3.249l5.434-7.976l0.05,0.05l4.29,4.29l6.878-9.48l0.5,0.362l-0.034,0.048L63.189,28.99l-4.324-4.324L53.668,32.295z
				 M49.885,32.178h3.721l5.242-7.695l0.05,0.05l4.277,4.277l7.154-9.86l-0.311-0.225l-6.889,9.496l-4.337-4.337l-5.39,7.91h-3.36
				l-0.017-0.017l-5.186-5.186h-1.8v0.384h1.641l0.017,0.017L49.885,32.178z"/>
		</g>
	</g>
</g>
<g>
	<g>
		<path fill="#1D1D1B" d="M99.738,14.22c-1.082,0.409-1.756,0.552-2.919,0.552c-3.592,0-5.776-2.756-5.776-7.185
			s2.184-7.165,5.776-7.165c1.163,0,1.797,0.102,2.878,0.51l0.837,0.307c0.102,0.041,0.143,0.122,0.102,0.224l-0.184,0.469
			c-0.041,0.081-0.122,0.122-0.204,0.081l-0.858-0.306c-0.898-0.347-1.51-0.429-2.572-0.45c-3.102,0-4.878,2.347-4.878,6.328
			c0,3.96,1.776,6.327,4.878,6.327c1.062,0,1.694-0.122,2.633-0.469l0.796-0.286c0.102-0.041,0.184,0,0.224,0.081l0.164,0.469
			c0.041,0.102,0,0.184-0.082,0.225L99.738,14.22z"/>
		<path fill="#1D1D1B" d="M114.318,14.405c0,0.101-0.061,0.163-0.163,0.163h-0.552c-0.101,0-0.163-0.061-0.163-0.163V3.75
			c0-0.531,0.041-1.184,0.102-1.49c0.041-0.184-0.143-0.245-0.204-0.081c-0.102,0.265-0.367,0.735-0.653,1.143l-6.551,9.185
			c-0.409,0.551-0.898,1.368-1.163,1.939c-0.042,0.081-0.102,0.122-0.204,0.122h-0.694c-0.102,0-0.164-0.061-0.164-0.163V0.79
			c0-0.101,0.061-0.163,0.164-0.163h0.572c0.101,0,0.163,0.061,0.163,0.163v10.675c0,0.531-0.061,1.164-0.122,1.491
			c-0.041,0.184,0.163,0.224,0.224,0.081c0.102-0.266,0.367-0.735,0.632-1.123l6.552-9.185c0.408-0.612,0.898-1.408,1.184-1.98
			c0.041-0.081,0.101-0.122,0.204-0.122h0.674c0.101,0,0.163,0.061,0.163,0.163V14.405z"/>
		<path fill="#1D1D1B" d="M126.123,14.22c-1.082,0.409-1.756,0.552-2.919,0.552c-3.592,0-5.776-2.756-5.776-7.185
			s2.184-7.165,5.776-7.165c1.163,0,1.797,0.102,2.878,0.51l0.837,0.307c0.102,0.041,0.143,0.122,0.102,0.224l-0.184,0.469
			c-0.041,0.081-0.122,0.122-0.204,0.081l-0.858-0.306c-0.898-0.347-1.51-0.429-2.572-0.45c-3.102,0-4.878,2.347-4.878,6.328
			c0,3.96,1.776,6.327,4.878,6.327c1.062,0,1.694-0.122,2.633-0.469l0.796-0.286c0.102-0.041,0.184,0,0.224,0.081l0.164,0.469
			c0.041,0.102,0,0.184-0.082,0.225L126.123,14.22z"/>
		<path fill="#1D1D1B" d="M135.131,14.405c0,0.101-0.061,0.163-0.164,0.163h-0.53c-0.102,0-0.164-0.061-0.164-0.163V1.423h-4.817
			c-0.102,0-0.163-0.061-0.163-0.164V0.79c0-0.101,0.061-0.163,0.163-0.163h10.471c0.102,0,0.163,0.061,0.163,0.163v0.469
			c0,0.102-0.061,0.164-0.163,0.164h-4.796V14.405z"/>
		<path fill="#1D1D1B" d="M150.466,6.995c0.102,0,0.164,0.061,0.164,0.164v0.489c0,0.102-0.061,0.164-0.164,0.164h-6.674v5.94h8.123
			c0.102,0,0.164,0.061,0.164,0.163v0.49c0,0.101-0.061,0.163-0.164,0.163h-8.837c-0.102,0-0.164-0.061-0.164-0.163V0.79
			c0-0.101,0.061-0.163,0.164-0.163h8.715c0.102,0,0.163,0.061,0.122,0.184l-0.122,0.469c-0.021,0.102-0.081,0.143-0.184,0.143
			h-7.817v5.572H150.466z"/>
		<path fill="#1D1D1B" d="M166.76,14.567c-0.102,0-0.164-0.061-0.164-0.163V4.341c0-0.755,0.021-1.449,0.081-2.082
			c0.021-0.245-0.163-0.327-0.245-0.061c-0.204,0.551-0.428,1.061-0.694,1.633l-3.163,6.777c-0.265,0.572-0.592,1.408-0.816,2
			c-0.021,0.081-0.082,0.122-0.184,0.122h-0.572c-0.102,0-0.164-0.041-0.184-0.122c-0.224-0.592-0.551-1.449-0.817-2.021
			l-3.164-6.735c-0.245-0.572-0.469-1.103-0.694-1.654c-0.081-0.265-0.286-0.184-0.245,0.061c0.061,0.632,0.081,1.326,0.081,2.082
			v10.063c0,0.101-0.061,0.163-0.163,0.163h-0.551c-0.102,0-0.164-0.061-0.164-0.163V0.79c0-0.101,0.061-0.163,0.164-0.163h1
			c0.102,0,0.164,0.041,0.184,0.143c0.143,0.51,0.429,1.163,0.674,1.674l3.511,7.593c0.224,0.45,0.387,0.898,0.51,1.306
			c0.061,0.204,0.224,0.204,0.286,0c0.122-0.408,0.286-0.837,0.51-1.286l3.511-7.593c0.244-0.51,0.53-1.183,0.673-1.694
			c0.021-0.102,0.081-0.143,0.184-0.143h1c0.102,0,0.163,0.061,0.163,0.163v13.615c0,0.101-0.061,0.163-0.163,0.163H166.76z"/>
		<path fill="#1D1D1B" d="M171.279,14.445c-0.041,0.081-0.101,0.122-0.204,0.122h-0.592c-0.122,0-0.163-0.081-0.122-0.184
			l4.511-10.736c0.388-0.918,0.755-1.98,1-2.878c0.02-0.102,0.081-0.143,0.184-0.143h0.572c0.101,0,0.163,0.041,0.184,0.143
			c0.245,0.878,0.632,1.939,1,2.878l4.531,10.736c0.041,0.102,0,0.184-0.122,0.184h-0.592c-0.102,0-0.164-0.041-0.204-0.122
			l-1.592-3.858h-6.96L171.279,14.445z M177.178,4.322c-0.327-0.776-0.592-1.633-0.715-2.205c-0.041-0.143-0.204-0.143-0.224,0
			c-0.143,0.572-0.408,1.428-0.735,2.205l-2.286,5.429h6.246L177.178,4.322z"/>
	</g>
	<g>
		<path fill="#1D1D1B" d="M101.718,41.182c0,0.101-0.061,0.163-0.163,0.163h-0.551c-0.102,0-0.164-0.061-0.164-0.163V28.2h-8.226
			v12.981c0,0.101-0.061,0.163-0.163,0.163h-0.551c-0.102,0-0.164-0.061-0.164-0.163V27.567c0-0.101,0.061-0.163,0.164-0.163h9.654
			c0.102,0,0.163,0.061,0.163,0.163V41.182z"/>
		<path fill="#1D1D1B" d="M113.073,33.772c0.102,0,0.164,0.061,0.164,0.164v0.489c0,0.102-0.061,0.164-0.164,0.164h-6.674v5.94
			h8.124c0.102,0,0.164,0.061,0.164,0.163v0.49c0,0.101-0.061,0.163-0.164,0.163h-8.837c-0.102,0-0.164-0.061-0.164-0.163V27.567
			c0-0.101,0.061-0.163,0.164-0.163h8.715c0.102,0,0.164,0.061,0.122,0.184l-0.122,0.469c-0.021,0.102-0.081,0.143-0.184,0.143
			h-7.818v5.572H113.073z"/>
		<path fill="#1D1D1B" d="M122.694,27.404c2.857,0,4.511,1.51,4.511,4.082c0,2.796-1.898,4.245-5.776,4.245h-2.838v5.45
			c0,0.101-0.061,0.163-0.163,0.163h-0.551c-0.102,0-0.164-0.061-0.164-0.163V27.567c0-0.101,0.061-0.163,0.164-0.163H122.694z
			 M121.428,34.915c3.306,0,4.899-1.184,4.899-3.429c0-2.061-1.368-3.286-3.633-3.286h-4.103v6.715H121.428z"/>
		<path fill="#1D1D1B" d="M138.233,40.997c-1.082,0.409-1.756,0.552-2.919,0.552c-3.592,0-5.776-2.756-5.776-7.185
			s2.184-7.165,5.776-7.165c1.163,0,1.797,0.102,2.878,0.51l0.837,0.307c0.102,0.041,0.143,0.122,0.102,0.224l-0.184,0.469
			c-0.042,0.081-0.123,0.122-0.204,0.081l-0.858-0.306c-0.897-0.347-1.51-0.429-2.572-0.45c-3.102,0-4.878,2.347-4.878,6.328
			c0,3.96,1.776,6.327,4.878,6.327c1.062,0,1.694-0.122,2.633-0.47l0.796-0.286c0.102-0.041,0.184,0,0.224,0.081l0.164,0.47
			c0.041,0.102,0,0.184-0.082,0.225L138.233,40.997z"/>
		<path fill="#1D1D1B" d="M153.016,34.364c0,4.449-2.163,7.185-5.755,7.185c-3.572,0-5.756-2.736-5.756-7.185
			c0-4.409,2.184-7.165,5.756-7.165C150.853,27.2,153.016,29.955,153.016,34.364z M142.403,34.364c0,3.98,1.776,6.327,4.858,6.327
			s4.878-2.347,4.878-6.327c0-3.96-1.796-6.328-4.878-6.328S142.403,30.404,142.403,34.364z"/>
		<path fill="#1D1D1B" d="M165.597,41.345c-0.102,0-0.164-0.061-0.164-0.163v-6.593h-8.409v6.593c0,0.101-0.061,0.163-0.164,0.163
			h-0.551c-0.102,0-0.164-0.061-0.164-0.163V27.567c0-0.101,0.061-0.163,0.164-0.163h0.551c0.102,0,0.164,0.061,0.164,0.163v6.205
			h8.409v-6.205c0-0.101,0.061-0.163,0.164-0.163h0.53c0.102,0,0.164,0.061,0.164,0.163v13.615c0,0.101-0.061,0.163-0.164,0.163
			H165.597z"/>
		<path fill="#1D1D1B" d="M170.115,41.222c-0.041,0.081-0.102,0.122-0.204,0.122h-0.592c-0.122,0-0.163-0.081-0.122-0.184
			l4.511-10.736c0.388-0.918,0.755-1.98,1-2.878c0.02-0.102,0.081-0.143,0.184-0.143h0.572c0.102,0,0.163,0.041,0.184,0.143
			c0.244,0.878,0.632,1.939,1,2.878l4.531,10.736c0.041,0.102,0,0.184-0.122,0.184h-0.592c-0.101,0-0.163-0.041-0.204-0.122
			l-1.592-3.858h-6.96L170.115,41.222z M176.014,31.099c-0.327-0.776-0.592-1.633-0.715-2.205c-0.041-0.143-0.204-0.143-0.224,0
			c-0.143,0.572-0.408,1.428-0.735,2.205l-2.286,5.429h6.246L176.014,31.099z"/>
		<path fill="#1D1D1B" d="M194.432,41.182c0,0.101-0.061,0.163-0.163,0.163h-0.552c-0.101,0-0.163-0.061-0.163-0.163V28.2h-7.123
			v6.164c0,3.388-0.817,5.49-2.572,6.674l-0.715,0.489c-0.102,0.061-0.184,0.061-0.224-0.041l-0.286-0.408
			c-0.041-0.102-0.041-0.184,0.061-0.225l0.735-0.489c1.449-0.98,2.122-2.878,2.122-6v-6.797c0-0.101,0.061-0.163,0.164-0.163h8.552
			c0.101,0,0.163,0.061,0.163,0.163V41.182z"/>
		<path fill="#1D1D1B" d="M198.42,41.345c-0.102,0-0.164-0.061-0.164-0.163V27.567c0-0.101,0.061-0.163,0.164-0.163h0.551
			c0.102,0,0.163,0.061,0.163,0.163v5.45h2.838c3.878,0,5.776,1.449,5.776,4.246c0,2.571-1.654,4.082-4.511,4.082H198.42z
			 M203.237,40.549c2.265,0,3.633-1.225,3.633-3.286c0-2.245-1.592-3.429-4.899-3.429h-2.838v6.715H203.237z"/>
		<path fill="#1D1D1B" d="M220.225,41.345c-0.102,0-0.164-0.061-0.164-0.163v-6.593h-8.409v6.593c0,0.101-0.061,0.163-0.164,0.163
			h-0.551c-0.102,0-0.164-0.061-0.164-0.163V27.567c0-0.101,0.061-0.163,0.164-0.163h0.551c0.102,0,0.164,0.061,0.164,0.163v6.205
			h8.409v-6.205c0-0.101,0.061-0.163,0.164-0.163h0.53c0.102,0,0.164,0.061,0.164,0.163v13.615c0,0.101-0.061,0.163-0.164,0.163
			H220.225z"/>
		<path fill="#1D1D1B" d="M235.561,34.364c0,4.449-2.163,7.185-5.755,7.185c-3.572,0-5.756-2.736-5.756-7.185
			c0-4.409,2.184-7.165,5.756-7.165C233.398,27.2,235.561,29.955,235.561,34.364z M224.948,34.364c0,3.98,1.776,6.327,4.858,6.327
			s4.878-2.347,4.878-6.327c0-3.96-1.796-6.328-4.878-6.328S224.948,30.404,224.948,34.364z"/>
		<path fill="#1D1D1B" d="M247.081,28.057c-0.021,0.102-0.082,0.143-0.184,0.143h-7.328v12.981c0,0.101-0.061,0.163-0.163,0.163
			h-0.551c-0.102,0-0.164-0.061-0.164-0.163V27.567c0-0.101,0.061-0.163,0.164-0.163h8.226c0.101,0,0.163,0.061,0.122,0.184
			L247.081,28.057z"/>
		<path fill="#1D1D1B" d="M260.414,34.364c0,4.449-2.163,7.185-5.755,7.185c-3.572,0-5.756-2.736-5.756-7.185
			c0-4.409,2.184-7.165,5.756-7.165C258.251,27.2,260.414,29.955,260.414,34.364z M249.801,34.364c0,3.98,1.776,6.327,4.858,6.327
			c3.082,0,4.878-2.347,4.878-6.327c0-3.96-1.796-6.328-4.878-6.328C251.577,28.037,249.801,30.404,249.801,34.364z"/>
	</g>
	<g>
		<path fill="#1D1D1B" d="M92.39,55.095c1-0.286,2.062-0.429,3.409-0.429c2.715,0,4.531,1.47,4.531,3.654
			c0,1.347-0.878,2.551-2.388,3.164c-0.204,0.081-0.184,0.184,0.021,0.245c1.776,0.551,2.796,1.919,2.796,3.469
			c0,2.347-2,3.817-5.021,3.817c-1.389,0-2.47-0.184-3.348-0.429l-1.082-0.327c-0.101-0.021-0.142-0.102-0.101-0.204l0.163-0.489
			c0.021-0.082,0.102-0.123,0.204-0.102l1.061,0.306c0.837,0.245,1.898,0.409,3.103,0.409c2.47,0,4.143-1.143,4.143-3.001
			c0-2.082-1.98-3.123-4.266-3.123h-1.796c-0.102,0-0.164-0.061-0.164-0.164v-0.489c0-0.102,0.061-0.164,0.164-0.164h1.796
			c2.266,0,3.817-1.286,3.817-2.898c0-1.694-1.449-2.857-3.612-2.857c-1.225,0-2.266,0.122-3.164,0.387l-0.939,0.307
			c-0.102,0.02-0.184-0.021-0.204-0.123l-0.143-0.489c-0.02-0.102,0.021-0.184,0.123-0.204L92.39,55.095z"/>
		<path fill="#1D1D1B" d="M115.072,67.995c0.102,0,0.164,0.061,0.164,0.164v3.679c0,0.101-0.061,0.163-0.164,0.163h-0.53
			c-0.102,0-0.164-0.061-0.164-0.163v-3.026h-10.92v3.026c0,0.101-0.061,0.163-0.163,0.163h-0.531c-0.102,0-0.163-0.061-0.163-0.163
			v-3.679c0-0.102,0.061-0.164,0.163-0.164h0.837l0.837-1.836c0.51-1.143,0.735-2.388,0.735-3.96v-7.165
			c0-0.102,0.061-0.163,0.163-0.163h8.552c0.102,0,0.163,0.061,0.163,0.163v12.961H115.072z M106.051,62.199
			c0,1.714-0.266,3.061-0.817,4.286l-0.694,1.51h8.655V55.667h-7.144V62.199z"/>
		<path fill="#1D1D1B" d="M123.326,54.871c2.857,0,4.511,1.51,4.511,4.082c0,2.796-1.898,4.245-5.776,4.245h-2.837v5.45
			c0,0.102-0.061,0.164-0.164,0.164h-0.551c-0.102,0-0.164-0.061-0.164-0.164V55.034c0-0.102,0.061-0.163,0.164-0.163H123.326z
			 M122.061,62.382c3.306,0,4.899-1.184,4.899-3.429c0-2.062-1.368-3.286-3.633-3.286h-4.103v6.715H122.061z"/>
		<path fill="#1D1D1B" d="M129.313,68.689c-0.041,0.081-0.102,0.122-0.204,0.122h-0.592c-0.122,0-0.163-0.081-0.122-0.184
			l4.511-10.736c0.388-0.918,0.755-1.979,1-2.878c0.02-0.102,0.081-0.143,0.184-0.143h0.572c0.102,0,0.163,0.041,0.184,0.143
			c0.244,0.878,0.632,1.939,1,2.878l4.531,10.736c0.041,0.102,0,0.184-0.122,0.184h-0.592c-0.101,0-0.163-0.041-0.204-0.122
			l-1.592-3.858h-6.96L129.313,68.689z M135.212,58.566c-0.327-0.776-0.592-1.633-0.715-2.205c-0.041-0.143-0.204-0.143-0.224,0
			c-0.143,0.572-0.408,1.428-0.735,2.205l-2.286,5.429h6.246L135.212,58.566z"/>
		<path fill="#1D1D1B" d="M148.833,54.871c2.49,0,3.98,1.225,3.98,3.306c0,1.531-0.776,2.775-2.266,3.306
			c-0.245,0.061-0.245,0.204,0.021,0.265c1.735,0.429,2.714,1.674,2.714,3.491c0,2.244-1.531,3.572-4.184,3.572h-5.674
			c-0.102,0-0.164-0.061-0.164-0.164V55.034c0-0.102,0.061-0.163,0.164-0.163H148.833z M147.772,61.239
			c2.694,0,4.143-1.204,4.143-3.041c0-1.551-1.184-2.53-3.082-2.53h-4.695v5.572H147.772z M149.098,67.995
			c2.041,0,3.286-1.02,3.286-2.775c0-2.062-1.592-3.164-4.572-3.164h-3.675v5.939H149.098z"/>
		<path fill="#1D1D1B" d="M167.209,61.831c0,4.449-2.163,7.185-5.755,7.185c-3.572,0-5.756-2.736-5.756-7.185
			c0-4.409,2.184-7.165,5.756-7.165C165.046,54.667,167.209,57.422,167.209,61.831z M156.596,61.831c0,3.98,1.776,6.327,4.858,6.327
			s4.878-2.347,4.878-6.327c0-3.96-1.796-6.328-4.878-6.328S156.596,57.872,156.596,61.831z"/>
		<path fill="#1D1D1B" d="M181.157,61.831c0,4.449-2.163,7.185-5.755,7.185c-3.572,0-5.756-2.736-5.756-7.185
			c0-4.409,2.184-7.165,5.756-7.165C178.994,54.667,181.157,57.422,181.157,61.831z M170.544,61.831c0,3.98,1.776,6.327,4.858,6.327
			s4.878-2.347,4.878-6.327c0-3.96-1.796-6.328-4.878-6.328S170.544,57.872,170.544,61.831z"/>
		<path fill="#1D1D1B" d="M189.594,61.055c-0.245,0.367-0.327,0.49-0.469,0.572c-0.061,0.041-0.082,0.102-0.061,0.164
			c0.021,0.061,0.081,0.081,0.143,0.122c0.122,0.081,0.224,0.224,0.388,0.51l4.143,6.184c0.061,0.123,0.02,0.204-0.123,0.204h-0.653
			c-0.081,0-0.143-0.041-0.184-0.102l-4.143-6.225c-0.081-0.143-0.224-0.143-0.327,0l-4.143,6.225
			c-0.041,0.061-0.102,0.102-0.184,0.102h-0.653c-0.143,0-0.184-0.081-0.102-0.204l4.143-6.184c0.164-0.307,0.286-0.429,0.388-0.51
			c0.061-0.041,0.122-0.061,0.143-0.143c0-0.041-0.021-0.102-0.061-0.143c-0.184-0.081-0.286-0.245-0.469-0.572l-4.02-5.981
			c-0.082-0.122-0.042-0.204,0.101-0.204h0.653c0.082,0,0.143,0.041,0.184,0.102l4.021,6c0.102,0.164,0.224,0.164,0.327,0l4.021-6
			c0.041-0.061,0.102-0.102,0.184-0.102h0.653c0.143,0,0.184,0.081,0.122,0.204L189.594,61.055z"/>
		<path fill="#1D1D1B" d="M201.95,54.871c2.857,0,4.511,1.51,4.511,4.082c0,2.796-1.898,4.245-5.776,4.245h-2.837v5.45
			c0,0.102-0.061,0.164-0.164,0.164h-0.551c-0.102,0-0.164-0.061-0.164-0.164V55.034c0-0.102,0.061-0.163,0.164-0.163H201.95z
			 M200.684,62.382c3.306,0,4.899-1.184,4.899-3.429c0-2.062-1.368-3.286-3.633-3.286h-4.103v6.715H200.684z"/>
		<path fill="#1D1D1B" d="M207.936,68.689c-0.041,0.081-0.102,0.122-0.204,0.122h-0.592c-0.122,0-0.163-0.081-0.122-0.184
			l4.511-10.736c0.388-0.918,0.755-1.979,1-2.878c0.02-0.102,0.081-0.143,0.184-0.143h0.572c0.102,0,0.163,0.041,0.184,0.143
			c0.244,0.878,0.632,1.939,1,2.878l4.531,10.736c0.041,0.102,0,0.184-0.122,0.184h-0.592c-0.101,0-0.163-0.041-0.204-0.122
			l-1.592-3.858h-6.96L207.936,68.689z M213.835,58.566c-0.327-0.776-0.592-1.633-0.715-2.205c-0.041-0.143-0.204-0.143-0.224,0
			c-0.143,0.572-0.408,1.428-0.735,2.205l-2.286,5.429h6.246L213.835,58.566z"/>
		<path fill="#1D1D1B" d="M231.334,68.811c-0.102,0-0.164-0.061-0.164-0.164v-6.592h-8.409v6.592c0,0.102-0.061,0.164-0.163,0.164
			h-0.551c-0.102,0-0.164-0.061-0.164-0.164V55.034c0-0.102,0.061-0.163,0.164-0.163h0.551c0.102,0,0.163,0.061,0.163,0.163v6.205
			h8.409v-6.205c0-0.102,0.061-0.163,0.164-0.163h0.53c0.102,0,0.164,0.061,0.164,0.163v13.614c0,0.102-0.061,0.164-0.164,0.164
			H231.334z"/>
		<path fill="#1D1D1B" d="M243.404,61.239c0.102,0,0.164,0.061,0.164,0.164v0.489c0,0.102-0.061,0.164-0.164,0.164h-6.674v5.939
			h8.124c0.102,0,0.164,0.061,0.164,0.164v0.489c0,0.102-0.061,0.164-0.164,0.164h-8.837c-0.102,0-0.164-0.061-0.164-0.164V55.034
			c0-0.102,0.061-0.163,0.164-0.163h8.715c0.102,0,0.164,0.061,0.122,0.184l-0.122,0.47c-0.021,0.102-0.081,0.143-0.184,0.143
			h-7.818v5.572H243.404z"/>
		<path fill="#1D1D1B" d="M257.495,68.811c-0.102,0-0.164-0.061-0.164-0.164v-6.592h-8.409v6.592c0,0.102-0.061,0.164-0.163,0.164
			h-0.551c-0.102,0-0.164-0.061-0.164-0.164V55.034c0-0.102,0.061-0.163,0.164-0.163h0.551c0.102,0,0.163,0.061,0.163,0.163v6.205
			h8.409v-6.205c0-0.102,0.061-0.163,0.164-0.163h0.53c0.102,0,0.164,0.061,0.164,0.163v13.614c0,0.102-0.061,0.164-0.164,0.164
			H257.495z"/>
		<path fill="#1D1D1B" d="M272.423,68.648c0,0.102-0.061,0.164-0.163,0.164h-0.551c-0.102,0-0.164-0.061-0.164-0.164V57.994
			c0-0.531,0.041-1.184,0.102-1.49c0.041-0.184-0.143-0.245-0.204-0.081c-0.102,0.265-0.367,0.735-0.653,1.143l-6.551,9.185
			c-0.409,0.551-0.898,1.368-1.163,1.939c-0.042,0.081-0.102,0.122-0.204,0.122h-0.694c-0.102,0-0.164-0.061-0.164-0.164V55.034
			c0-0.102,0.061-0.163,0.164-0.163h0.572c0.101,0,0.163,0.061,0.163,0.163v10.676c0,0.53-0.061,1.163-0.122,1.49
			c-0.041,0.184,0.163,0.224,0.224,0.081c0.102-0.265,0.367-0.735,0.632-1.123l6.552-9.185c0.408-0.612,0.898-1.408,1.183-1.98
			c0.042-0.081,0.102-0.122,0.204-0.122h0.674c0.102,0,0.163,0.061,0.163,0.163V68.648z"/>
		<path fill="#1D1D1B" d="M285.535,54.871c0.102,0,0.163,0.061,0.163,0.163v13.614c0,0.102-0.061,0.164-0.163,0.164h-0.551
			c-0.102,0-0.164-0.061-0.164-0.164v-6.041h-2.775c-1.98,0-3.327,0.837-4.144,2.796l-1.388,3.286
			c-0.041,0.081-0.102,0.122-0.204,0.122h-0.572c-0.123,0-0.164-0.081-0.123-0.184l1.491-3.531c0.489-1.123,1.183-2.082,2.184-2.552
			c0.244-0.122,0.224-0.244-0.021-0.327c-2-0.612-3.144-1.817-3.144-3.694c0-2.307,1.531-3.654,4.123-3.654H285.535z
			 M280.248,55.667c-2.021,0-3.225,1.061-3.225,2.858c0,2.061,1.735,3.266,4.674,3.266h3.123v-6.123H280.248z"/>
	</g>
</g>
</svg>
